Coordinates
version=1
nRows=30
nColumns=38
inDegrees=no

Units are S.I. units (second, meters, Newtons, ...)
If the header above contains a line with 'inDegrees', this indicates whether rotational values are in degrees (yes) or radians (no).

endheader
time	pelvis_tilt	pelvis_list	pelvis_rotation	pelvis_tx	pelvis_ty	pelvis_tz	hip_flexion_r	hip_adduction_r	hip_rotation_r	knee_angle_r	ankle_angle_r	subtalar_angle_r	mtp_angle_r	hip_flexion_l	hip_adduction_l	hip_rotation_l	knee_angle_l	ankle_angle_l	subtalar_angle_l	mtp_angle_l	lumbar_extension	lumbar_bending	lumbar_rotation	arm_flex_r	arm_add_r	arm_rot_r	elbow_flex_r	pro_sup_r	wrist_flex_r	wrist_dev_r	arm_flex_l	arm_add_l	arm_rot_l	elbow_flex_l	pro_sup_l	wrist_flex_l	wrist_dev_l
0.39	-0.27924	0.0301014	0.00627255	0.778873	0.980946	-0.327128	0.768419	-0.0199638	-0.240889	-0.219558	-0.139539	0.00521278	0.00300839	-0.0242124	-0.0470809	-0.292122	-1.34704	-0.244094	0.0170338	0.0012027	0.186141	0.0154958	-0.253324	-0.572896	-0.445623	-0.0867979	1.07158	1.44492	0.0338441	-0.0330095	-0.252229	-0.615298	0.31549	1.89477	1.52092	0.0274995	-0.0146651
0.4	-0.270152	0.022238	-0.00793255	0.777599	0.974689	-0.324121	0.782207	0.000161203	-0.205173	-0.32863	-0.0831327	0.00521278	0.00300839	-0.00444029	-0.0876164	-0.301445	-1.48975	-0.213833	0.0170338	0.0012027	0.169793	0.0271964	-0.234062	-0.537519	-0.458973	-0.0702824	1.07969	1.44063	0.0338441	-0.0330095	-0.267015	-0.600858	0.316669	1.79783	1.54601	0.0274995	-0.0146651
0.41	-0.264172	0.0141788	-0.0191336	0.775704	0.967754	-0.321796	0.79242	0.0188678	-0.174966	-0.432304	-0.017599	0.00521278	0.00300839	0.0294814	-0.123322	-0.301335	-1.62627	-0.184269	0.0170338	0.0012027	0.155718	0.038952	-0.215929	-0.498307	-0.469846	-0.0549448	1.0885	1.43731	0.0338441	-0.0330095	-0.281791	-0.588121	0.319697	1.70604	1.57082	0.0274995	-0.0146651
0.42	-0.261273	0.00601672	-0.0273965	0.773184	0.960351	-0.320105	0.798914	0.0360465	-0.150309	-0.530169	0.0564327	0.00521278	0.00300839	0.0774812	-0.153982	-0.2919	-1.75634	-0.155443	0.0170338	0.0012027	0.143937	0.0506581	-0.198878	-0.455345	-0.478226	-0.0408208	1.09801	1.43511	0.0338441	-0.0330095	-0.296668	-0.577109	0.32453	1.61963	1.59521	0.0274995	-0.0146651
0.43	-0.261362	-0.00201122	-0.0329372	0.770016	0.952882	-0.319004	0.801173	0.0514434	-0.131129	-0.620913	0.137065	0.00521278	0.00300839	0.139232	-0.179061	-0.273602	-1.87917	-0.127445	0.0170338	0.0012027	0.134493	0.0620419	-0.182741	-0.408915	-0.484078	-0.0280141	1.10829	1.43441	0.0338441	-0.0330095	-0.311969	-0.567879	0.331049	1.5393	1.61884	0.0274995	-0.0146651
0.44	-0.264184	-0.00949443	-0.0361749	0.766265	0.945842	-0.318426	0.798181	0.0646675	-0.116966	-0.702213	0.220964	0.00521278	0.00300839	0.213886	-0.197747	-0.247509	-1.99326	-0.10037	0.0170338	0.0012027	0.127418	0.0726229	-0.167179	-0.359621	-0.487367	-0.0167225	1.11948	1.43584	0.0338441	-0.0330095	-0.328266	-0.560523	0.339063	1.46623	1.64109	0.0274995	-0.0146651
0.45	-0.269261	-0.015863	-0.0377148	0.762089	0.939683	-0.318275	0.788455	0.0751843	-0.106857	-0.771085	0.303717	0.00521278	0.00300839	0.299814	-0.209121	-0.215446	-2.0964	-0.0742919	0.0170338	0.0012027	0.122657	0.081689	-0.151693	-0.308468	-0.488086	-0.00724112	1.13192	1.44016	0.0338441	-0.0330095	-0.346327	-0.555172	0.348345	1.40205	1.66094	0.0274995	-0.0146651
0.46	-0.275872	-0.0203938	-0.0382624	0.757684	0.934749	-0.318447	0.770245	0.0823004	-0.0994902	-0.824518	0.380417	0.00521278	0.00300839	0.394471	-0.212423	-0.179978	-2.18591	-0.0492745	0.0170338	0.0012027	0.119993	0.0883238	-0.135695	-0.256862	-0.486291	6.92837e-05	1.14618	1.44804	0.0338441	-0.0330095	-0.366989	-0.55198	0.358669	1.34847	1.67695	0.0274995	-0.0146651
0.47	-0.283117	-0.0223159	-0.0385222	0.753308	0.931292	-0.318849	0.741837	0.0851755	-0.0935153	-0.8601	0.446182	0.00521278	0.00300839	0.494444	-0.207328	-0.144228	-2.25896	-0.0254183	0.0170338	0.0012027	0.119002	0.0914648	-0.118614	-0.206502	-0.482126	0.00486845	1.16305	1.45978	0.0338441	-0.0330095	-0.391037	-0.551093	0.369783	1.30704	1.68745	0.0274995	-0.0146651
0.48	-0.289961	-0.0208256	-0.0390764	0.749296	0.92952	-0.319417	0.701944	0.0829474	-0.0879195	-0.876463	0.496484	0.00521278	0.00300839	0.595777	-0.194158	-0.111503	-2.31302	-0.00291178	0.0170338	0.0012027	0.119153	0.0901056	-0.0999946	-0.159186	-0.47585	0.0069601	1.18344	1.47512	0.0338441	-0.0330095	-0.419102	-0.552567	0.381287	1.27879	1.69097	0.0274995	-0.0146651
0.49	-0.29539	-0.0153048	-0.0403365	0.745999	0.929595	-0.320101	0.650017	0.0749062	-0.0822808	-0.873476	0.527392	0.00521278	0.00300839	0.694408	-0.173966	-0.0848335	-2.34619	0.0179635	0.0170338	0.0012027	0.119908	0.0834723	-0.0796054	-0.116567	-0.467834	0.00641591	1.20819	1.49323	0.0338441	-0.0330095	-0.451618	-0.556291	0.392485	1.26404	1.6867	0.0274995	-0.0146651
0.5	-0.298645	-0.00550388	-0.0424999	0.74369	0.931571	-0.320847	0.586448	0.0607199	-0.0768674	-0.852239	0.535838	0.00521278	0.00300839	0.786644	-0.148461	-0.0665125	-2.35752	0.0368867	0.0170338	0.0012027	0.12082	0.0712237	-0.0574951	-0.0799294	-0.458565	0.00365826	1.2379	1.51286	0.0338441	-0.0330095	-0.488807	-0.561896	0.402274	1.2623	1.67482	0.0274995	-0.0146651
0.51	-0.29937	0.00832901	-0.0455362	0.742529	0.935372	-0.321605	0.512679	0.0406223	-0.0725821	-0.814971	0.519972	0.00521278	0.00300839	0.869596	-0.119816	-0.0577438	-2.34704	0.053581	0.0170338	0.0012027	0.121639	0.0536093	-0.0340149	-0.050036	-0.448629	-0.00053156	1.27279	1.53255	0.0338441	-0.0330095	-0.530669	-0.568732	0.409151	1.27236	1.65666	0.0274995	-0.0146651
0.52	-0.297689	0.0254135	-0.0491991	0.742543	0.940778	-0.322337	0.431237	0.0154948	-0.0707747	-0.764913	0.479568	0.00521278	0.00300839	0.941487	-0.0903753	-0.0584876	-2.31576	0.0678767	0.0170338	0.0012027	0.122423	0.0315298	-0.00979527	-0.0270744	-0.438672	-0.0051241	1.31262	1.55095	0.0338441	-0.0330095	-0.576965	-0.575892	0.41139	1.29239	1.63444	0.0274995	-0.0146651
0.53	-0.294187	0.0445383	-0.0530675	0.743641	0.947455	-0.323034	0.345594	-0.0131759	-0.0729362	-0.706241	0.416372	0.00521278	0.00300839	1.00173	-0.0623662	-0.067546	-2.26544	0.0797314	0.0170338	0.0012027	0.123534	0.00647776	0.0143244	-0.0107077	-0.42934	-0.00902019	1.35672	1.56706	0.0338441	-0.0330095	-0.627169	-0.582325	0.407347	1.32022	1.61088	0.0274995	-0.0146651
0.54	-0.289814	0.0642265	-0.0566228	0.745618	0.954972	-0.323701	0.259794	-0.0434802	-0.0803023	-0.643931	0.334292	0.00521278	0.00300839	1.05066	-0.0376281	-0.0828739	-2.19822	0.0892238	0.0170338	0.0012027	0.125498	-0.0196821	0.0374079	-0.000196922	-0.421187	-0.0112532	1.40402	1.58024	0.0338441	-0.0330095	-0.680423	-0.587002	0.395813	1.35354	1.58864	0.0274995	-0.0146651
0.55	-0.285585	0.0829783	-0.0593557	0.748179	0.962869	-0.324362	0.177906	-0.0733725	-0.0934443	-0.583471	0.239316	0.00521278	0.00300839	1.08911	-0.0174005	-0.102034	-2.11627	0.0965388	0.0170338	0.0012027	0.128786	-0.0450454	0.0585631	0.00543562	-0.414568	-0.0111728	1.45315	1.59021	0.0338441	-0.0330095	-0.735506	-0.589108	0.376327	1.3901	1.56968	0.0274995	-0.0146651
0.56	-0.28228	0.0995467	-0.0608659	0.750992	0.970707	-0.325044	0.103416	-0.100974	-0.111978	-0.530407	0.139033	0.00521278	0.00300839	1.11787	-0.0021924	-0.122646	-2.02138	0.101944	0.0170338	0.0012027	0.133578	-0.0679976	0.0770526	0.00725142	-0.409552	-0.00853636	1.50245	1.59692	0.0338441	-0.0330095	-0.790859	-0.588209	0.349325	1.42788	1.55492	0.0274995	-0.0146651
0.57	-0.280249	0.113113	-0.0609268	0.753758	0.978148	-0.325753	0.0387527	-0.124826	-0.134502	-0.489808	0.0417207	0.00521278	0.00300839	1.13729	0.0082466	-0.142702	-1.91481	0.105737	0.0170338	0.0012027	0.139609	-0.0874648	0.0923591	0.00625968	-0.405896	-0.00350775	1.55014	1.60047	0.0338441	-0.0330095	-0.844669	-0.584342	0.316116	1.4652	1.54408	0.0274995	-0.0146651
0.58	-0.279389	0.123287	-0.0595017	0.756249	0.984981	-0.326461	-0.0149002	-0.144056	-0.158823	-0.465783	-0.044891	0.00521278	0.00300839	1.14721	0.0148402	-0.160722	-1.79729	0.108148	0.0170338	0.0012027	0.146167	-0.103031	0.104199	0.00330843	-0.403098	0.00342193	1.59435	1.60095	0.0338441	-0.0330095	-0.894993	-0.57802	0.278699	1.50073	1.53595	0.0274995	-0.0146651
0.59	-0.279118	0.130094	-0.0566985	0.75834	0.991133	-0.327113	-0.0574791	-0.158392	-0.182456	-0.461143	-0.114902	0.00521278	0.00300839	1.14708	0.0189758	-0.175729	-1.66925	0.109227	0.0170338	0.0012027	0.152281	-0.114848	0.112492	-0.000990574	-0.400511	0.0115613	1.6333	1.59853	0.0338441	-0.0330095	-0.939912	-0.57015	0.239488	1.5335	1.52872	0.0274995	-0.0146651
0.6	-0.278627	0.13391	-0.0527051	0.76001	0.996607	-0.327667	-0.0897606	-0.168103	-0.203247	-0.477275	-0.16514	0.00521278	0.00300839	1.13631	0.0222088	-0.187175	-1.53118	0.108733	0.0170338	0.0012027	0.156891	-0.123437	0.11733	-0.00629794	-0.397488	0.0201586	1.66542	1.59344	0.0338441	-0.0330095	-0.977699	-0.561897	0.200998	1.56286	1.52049	0.0274995	-0.0146651
0.61	-0.277104	0.135274	-0.0477378	0.76131	1.00142	-0.328104	-0.113005	-0.173895	-0.219896	-0.514187	-0.195385	0.00521278	0.00300839	1.11461	0.0259473	-0.19487	-1.38419	0.106107	0.0170338	0.0012027	0.159067	-0.129513	0.118927	-0.0125393	-0.393511	0.0285232	1.6895	1.58601	0.0338441	-0.0330095	-1.00696	-0.554523	0.165547	1.58841	1.50974	0.0274995	-0.0146651
0.62	-0.273907	0.134747	-0.0420019	0.762317	1.00555	-0.328443	-0.128636	-0.176753	-0.232164	-0.570681	-0.207866	0.00521278	0.00300839	1.08232	0.0311648	-0.198989	-1.23035	0.100555	0.0170338	0.0012027	0.158169	-0.133799	0.117593	-0.0198553	-0.388276	0.0361158	1.70477	1.57657	0.0338441	-0.0330095	-1.02677	-0.549232	0.135014	1.61006	1.49563	0.0274995	-0.0146651
0.63	-0.268674	0.132834	-0.0356723	0.763107	1.00894	-0.328724	-0.137991	-0.177744	-0.240701	-0.644618	-0.206327	0.00521278	0.00300839	1.04063	0.038202	-0.20012	-1.0731	0.0912735	0.0170338	0.0012027	0.153941	-0.1369	0.113688	-0.0285189	-0.381739	0.0426073	1.71095	1.56536	0.0338441	-0.0330095	-1.0367	-0.547032	0.110707	1.62793	1.47821	0.0274995	-0.0146651
0.64	-0.261406	0.129924	-0.0288953	0.763729	1.01149	-0.328996	-0.142152	-0.177832	-0.246619	-0.733268	-0.195015	0.00521278	0.00300839	0.991631	0.0467234	-0.199305	-0.917235	0.0777623	0.0170338	0.0012027	0.146517	-0.139224	0.107582	-0.0388367	-0.374108	0.0479066	1.7082	1.55246	0.0338441	-0.0330095	-1.03679	-0.548631	0.0933373	1.6424	1.45829	0.0274995	-0.0146651
0.65	-0.252438	0.126248	-0.021794	0.764192	1.01308	-0.329298	-0.141822	-0.177773	-0.251032	-0.833667	-0.177899	0.00521278	0.00300839	0.938193	0.0558556	-0.197972	-0.768736	0.0601668	0.0170338	0.0012027	0.136383	-0.140993	0.0996178	-0.0510497	-0.365793	0.0521658	1.69709	1.53782	0.0338441	-0.0330095	-1.02751	-0.55438	0.0831074	1.65397	1.43719	0.0274995	-0.0146651
0.66	-0.242336	0.121957	-0.0144836	0.764475	1.01358	-0.329647	-0.137249	-0.17809	-0.254744	-0.942959	-0.158201	0.00521278	0.00300839	0.883698	0.0644681	-0.197686	-0.634247	0.0395401	0.0170338	0.0012027	0.124287	-0.142281	0.0900801	-0.0652525	-0.357326	0.0557571	1.67839	1.52125	0.0338441	-0.0330095	-1.00954	-0.564272	0.0798614	1.66323	1.41637	0.0274995	-0.0146651
0.67	-0.231794	0.117189	-0.00709122	0.764536	1.01295	-0.330041	-0.128229	-0.179107	-0.258141	-1.05864	-0.138199	0.00521278	0.00300839	0.831671	0.0715157	-0.199705	-0.520376	0.0179562	0.0170338	0.0012027	0.111113	-0.143091	0.0791796	-0.0813424	-0.349247	0.0592191	1.65294	1.50256	0.0338441	-0.0330095	-0.983699	-0.577979	0.0832377	1.67077	1.39702	0.0274995	-0.0146651
0.68	-0.221554	0.112104	0.000236803	0.764306	1.01116	-0.330468	-0.114149	-0.180964	-0.26121	-1.17864	-0.119244	0.00521278	0.00300839	0.785377	0.0763097	-0.204457	-0.432925	-0.0015649	0.0170338	0.0012027	0.0977633	-0.143395	0.0670449	-0.0990116	-0.342008	0.0631655	1.62152	1.48169	0.0338441	-0.0330095	-0.950767	-0.594931	0.0927709	1.67716	1.37992	0.0274995	-0.0146651
